<?xml version="1.0" encoding="UTF-8"?>
<!DOCTYPE svg PUBLIC "-//W3C//DTD SVG 1.1//EN" "http://www.w3.org/Graphics/SVG/1.1/DTD/svg11.dtd">
<!-- Creator: CorelDRAW 2021.5 -->
<svg xmlns="http://www.w3.org/2000/svg" xml:space="preserve" width="92px" height="79px" version="1.1" style="shape-rendering:geometricPrecision; text-rendering:geometricPrecision; image-rendering:optimizeQuality; fill-rule:evenodd; clip-rule:evenodd"
viewBox="0 0 92 78.7"
 xmlns:xlink="http://www.w3.org/1999/xlink"
 xmlns:xodm="http://www.corel.com/coreldraw/odm/2003">
 <defs>
  <style type="text/css">
   <![CDATA[
    .fil0 {fill:#EF7F1A}
    .fil1 {fill:#FEFEFE;fill-rule:nonzero}
    .fil2 {fill:#2B2A29;fill-rule:nonzero}
   ]]>
  </style>
 </defs>
 <g id="Warstwa_x0020_1">
  <metadata id="CorelCorpID_0Corel-Layer"/>
  <g id="_3195239308656">
   <rect class="fil0" width="92" height="77.52"/>
   <path class="fil1" d="M77.94 38.99c0.45,0.88 1.17,1.33 2.18,1.33 0.8,0 1.43,-0.31 1.91,-0.94 0.47,-0.62 0.51,-1.4 0.13,-2.35l-2.8 -5.99c-0.38,-0.65 -0.9,-1.19 -1.55,-1.64 0.71,-0.44 1.26,-1.05 1.64,-1.82l2.58 -5.46c0.35,-0.97 0.29,-1.8 -0.18,-2.48 -0.47,-0.68 -1.1,-1.02 -1.87,-1.02 -1,0 -1.79,0.53 -2.35,1.6l-2.39 5.19c-0.39,0.8 -1.14,1.3 -2.27,1.51l0 -14.96c0,-0.77 -0.24,-1.36 -0.73,-1.79 -0.49,-0.43 -1.04,-0.65 -1.66,-0.65 -0.65,0 -1.22,0.21 -1.69,0.62 -0.47,0.42 -0.71,1.03 -0.71,1.82l0 26.09c0,0.71 0.24,1.27 0.71,1.67 0.47,0.4 1.04,0.6 1.69,0.6 0.62,0 1.17,-0.22 1.66,-0.65 0.49,-0.43 0.73,-0.97 0.73,-1.62l0 -6.34c1.1,0.15 1.85,0.65 2.27,1.51l2.7 5.77z"/>
   <path class="fil1" d="M65.61 33.31c0,-0.65 -0.24,-1.18 -0.71,-1.58 -0.47,-0.4 -1.04,-0.6 -1.69,-0.6 -0.62,0 -1.16,0.2 -1.62,0.6 -0.46,0.4 -0.68,0.93 -0.68,1.58 0,0.68 -0.25,1.25 -0.74,1.71 -0.48,0.45 -1.08,0.68 -1.79,0.68 -0.68,0 -1.25,-0.23 -1.71,-0.71 -0.46,-0.47 -0.69,-1.05 -0.69,-1.73l0 -7.59c0,-0.68 0.24,-1.25 0.71,-1.73 0.47,-0.47 1.03,-0.71 1.69,-0.71 0.68,0 1.27,0.24 1.77,0.71 0.5,0.48 0.76,1.04 0.76,1.69 0,0.74 0.22,1.3 0.68,1.69 0.46,0.38 1,0.57 1.62,0.57 0.68,0 1.25,-0.19 1.71,-0.57 0.46,-0.39 0.69,-0.95 0.69,-1.69 0,-1.95 -0.73,-3.63 -2.17,-5.04 -1.46,-1.4 -3.14,-2.1 -5.06,-2.1 -1.96,0 -3.64,0.7 -5.06,2.1 -1.42,1.41 -2.13,3.1 -2.13,5.08l0 7.59c0,2.01 0.7,3.71 2.11,5.1 1.4,1.4 3.09,2.09 5.08,2.09 2.07,0 3.79,-0.69 5.16,-2.06 1.38,-1.38 2.07,-3.07 2.07,-5.08z"/>
   <path class="fil1" d="M43.47 33.22c0,0.71 -0.27,1.32 -0.8,1.84 -0.53,0.52 -1.13,0.78 -1.78,0.78 -0.65,0 -1.24,-0.26 -1.77,-0.78 -0.53,-0.52 -0.8,-1.13 -0.8,-1.84l0 -7.32c0,-0.71 0.25,-1.32 0.76,-1.82 0.5,-0.51 1.1,-0.76 1.81,-0.76 0.68,0 1.28,0.25 1.8,0.76 0.52,0.5 0.78,1.11 0.78,1.82l0 7.32zm4.75 -7.32c0,-1.93 -0.74,-3.63 -2.2,-5.11 -1.47,-1.47 -3.17,-2.21 -5.13,-2.21 -1.95,0 -3.66,0.74 -5.14,2.21 -1.48,1.48 -2.22,3.18 -2.22,5.11l0 7.32c0,1.95 0.74,3.67 2.22,5.14 1.48,1.48 3.19,2.22 5.14,2.22 1.96,0 3.66,-0.74 5.13,-2.22 1.46,-1.47 2.2,-3.19 2.2,-5.14l0 -7.32z"/>
   <path class="fil1" d="M27.67 11.3c0,-0.68 -0.23,-1.23 -0.71,-1.64 -0.47,-0.42 -1.02,-0.63 -1.64,-0.63 -1.54,0 -2.31,0.76 -2.31,2.27l0 21.65c0,2.16 0.67,3.94 2,5.33 1.33,1.39 3.03,2.08 5.1,2.08 0.74,0 1.32,-0.24 1.73,-0.71 0.42,-0.47 0.62,-1.03 0.62,-1.69 0,-0.65 -0.19,-1.19 -0.57,-1.64 -0.39,-0.44 -0.98,-0.66 -1.78,-0.66 -0.68,0 -1.25,-0.26 -1.73,-0.78 -0.47,-0.52 -0.71,-1.16 -0.71,-1.93l0 -21.65z"/>
   <path class="fil1" d="M16.09 24.12l2.17 0c0.77,0 1.37,-0.23 1.78,-0.69 0.41,-0.45 0.62,-1.01 0.62,-1.66 0,-0.65 -0.21,-1.21 -0.62,-1.66 -0.41,-0.46 -1.01,-0.69 -1.78,-0.69l-2.17 0 0 -3.02c0,-0.77 0.27,-1.41 0.82,-1.93 0.55,-0.52 1.22,-0.78 2.02,-0.78 0.68,0 1.24,-0.23 1.66,-0.71 0.43,-0.47 0.65,-1.03 0.65,-1.68 0,-0.59 -0.22,-1.13 -0.65,-1.6 -0.42,-0.47 -0.98,-0.71 -1.66,-0.71 -2.04,0 -3.81,0.71 -5.3,2.13 -1.5,1.42 -2.24,3.18 -2.24,5.28l0 21.92c0,0.74 0.23,1.31 0.69,1.71 0.45,0.4 1.02,0.6 1.7,0.6 0.63,0 1.16,-0.2 1.62,-0.6 0.46,-0.4 0.69,-0.97 0.69,-1.71l0 -14.2z"/>
   <path class="fil1" d="M72.96 34.52c0,-0.7 -0.24,-1.26 -0.73,-1.68 -0.48,-0.43 -1.04,-0.64 -1.68,-0.64 -1.58,0 -2.37,0.77 -2.37,2.32l0 22.24c0,2.22 0.68,4.04 2.05,5.47 1.37,1.43 3.11,2.14 5.24,2.14 0.76,0 1.35,-0.24 1.78,-0.73 0.42,-0.48 0.64,-1.06 0.64,-1.73 0,-0.67 -0.2,-1.23 -0.6,-1.69 -0.39,-0.45 -1,-0.68 -1.82,-0.68 -0.7,0 -1.29,-0.27 -1.78,-0.8 -0.48,-0.53 -0.73,-1.19 -0.73,-1.98l0 -22.24z"/>
   <path class="fil1" d="M60.64 57.23c0,0.71 -0.27,1.32 -0.8,1.84 -0.53,0.52 -1.13,0.77 -1.78,0.77 -0.65,0 -1.24,-0.25 -1.77,-0.77 -0.54,-0.52 -0.8,-1.13 -0.8,-1.84l0 -7.32c0,-0.71 0.25,-1.32 0.75,-1.82 0.51,-0.51 1.11,-0.76 1.82,-0.76 0.68,0 1.28,0.25 1.8,0.76 0.52,0.5 0.78,1.11 0.78,1.82l0 7.32zm4.74 -7.32c0,-1.93 -0.73,-3.63 -2.19,-5.11 -1.47,-1.48 -3.18,-2.22 -5.13,-2.22 -1.95,0 -3.67,0.74 -5.14,2.22 -1.48,1.48 -2.22,3.18 -2.22,5.11l0 7.32c0,1.95 0.74,3.67 2.22,5.14 1.47,1.48 3.19,2.22 5.14,2.22 1.95,0 3.66,-0.74 5.13,-2.22 1.46,-1.47 2.19,-3.19 2.19,-5.14l0 -7.32z"/>
   <path class="fil1" d="M42.98 57.23c0,0.71 -0.27,1.32 -0.8,1.84 -0.53,0.52 -1.13,0.77 -1.78,0.77 -0.65,0 -1.24,-0.25 -1.77,-0.77 -0.53,-0.52 -0.8,-1.13 -0.8,-1.84l0 -7.32c0,-0.71 0.25,-1.32 0.75,-1.82 0.51,-0.51 1.11,-0.76 1.82,-0.76 0.68,0 1.28,0.25 1.8,0.76 0.52,0.5 0.78,1.11 0.78,1.82l0 7.32zm4.74 -7.32c0,-1.93 -0.73,-3.63 -2.19,-5.11 -1.47,-1.48 -3.17,-2.22 -5.13,-2.22 -1.95,0 -3.67,0.74 -5.14,2.22 -1.48,1.48 -2.22,3.18 -2.22,5.11l0 7.32c0,1.95 0.74,3.67 2.22,5.14 1.47,1.48 3.19,2.22 5.14,2.22 1.96,0 3.66,-0.74 5.13,-2.22 1.46,-1.47 2.19,-3.19 2.19,-5.14l0 -7.32z"/>
   <path class="fil1" d="M20.35 50.13c0,-0.74 0.23,-1.37 0.69,-1.89 0.45,-0.52 1.04,-0.78 1.75,-0.78 0.71,0 1.31,0.25 1.82,0.74 0.5,0.49 0.75,1.07 0.75,1.75l0 7.68c0,0.71 -0.25,1.33 -0.75,1.86 -0.51,0.53 -1.11,0.8 -1.82,0.8l-1.51 0 0 3.95 1.51 0c2.1,0 3.84,-0.67 5.21,-2 1.38,-1.33 2.07,-2.99 2.07,-4.97l0 -7.32c0,-2.01 -0.7,-3.72 -2.09,-5.12 -1.39,-1.41 -3.12,-2.11 -5.19,-2.11 -2.01,0 -3.72,0.74 -5.13,2.22 -1.4,1.48 -2.1,3.21 -2.1,5.19l0 20.27c0,0.74 0.24,1.32 0.73,1.74 0.49,0.41 1.06,0.62 1.71,0.62 0.62,0 1.16,-0.21 1.64,-0.62 0.47,-0.42 0.71,-1 0.71,-1.74l0 -20.27z"/>
  </g>
  <polygon class="fil2" points="0,76.34 92,76.34 92,78.7 0,78.7 "/>
 </g>
</svg>
